Coordinates
version=1
nRows=10
nColumns=34
inDegrees=yes

Units are S.I. units (second, meters, Newtons, ...)
Angles are in degrees.

endheader
time	pelvis_tilt	pelvis_list	pelvis_rotation	pelvis_tx	pelvis_ty	pelvis_tz	hip_flexion_r	hip_adduction_r	hip_rotation_r	knee_angle_r	ankle_angle_r	subtalar_angle_r	mtp_angle_r	hip_flexion_l	hip_adduction_l	hip_rotation_l	knee_angle_l	socket_flexion	socket_adduction	socket_rotation	socket_tx	socket_ty	socket_tz	pros_ankle_rx	pros_ankle_ry	pros_ankle_rz	pros_ankle_tx	pros_ankle_ty	pros_ankle_tz	foot_flex	lumbar_extension	lumbar_bending	lumbar_rotation
      0.00000000	     -4.13504191	     -8.80581388	     -7.58172875	     -0.75623683	      1.03825309	      0.32510025	    -18.37471683	      9.50009184	     -4.06772610	     -2.94918319	     -0.72312181	     26.54883726	     37.43378212	     26.10895255	     -9.87158976	     -1.14221089	     -3.23621857	      0.00000000	      0.00000000	      0.00000000	      0.00000000	      0.00000000	      0.00000000	      0.00000000	      0.00000000	      0.00000000	      0.00000000	      0.00000000	      0.00000000	      0.00882011	    -15.57283298	      3.67374745	      8.63195833
      0.00416667	     -4.12372178	     -8.83001036	     -7.65295532	     -0.75104537	      1.03722175	      0.32531605	    -18.57928728	      9.44481041	     -4.00080641	     -3.13982225	     -0.75168035	     26.57357786	     37.44779527	     26.17838233	     -9.83460292	     -1.10550920	     -3.41868257	      0.00000000	      0.00000000	      0.00000000	      0.00000000	      0.00000000	      0.00000000	      0.00000000	      0.00000000	      0.00000000	      0.00000000	      0.00000000	      0.00000000	     -0.33418512	    -15.54057058	      3.63731816	      8.65149202
      0.00833333	     -4.12643075	     -8.84522897	     -7.78072075	     -0.74563809	      1.03619823	      0.32570143	    -18.74790407	      9.36789238	     -3.91556421	     -3.38650505	     -0.78000587	     26.62360576	     37.49571067	     26.21412082	     -9.82269934	     -1.07860648	     -3.55240148	      0.00000000	      0.00000000	      0.00000000	      0.00000000	      0.00000000	      0.00000000	      0.00000000	      0.00000000	      0.00000000	      0.00000000	      0.00000000	      0.00000000	     -0.78337659	    -15.55274240	      3.55596400	      8.73102634
      0.01250000	     -4.09958386	     -8.85772551	     -7.86217038	     -0.74007829	      1.03514253	      0.32597271	    -18.95523972	      9.29148055	     -3.83048091	     -3.63105370	     -0.80816907	     26.66273512	     37.53270965	     26.27859305	     -9.77812140	     -1.07615333	     -3.80498964	      0.00000000	      0.00000000	      0.00000000	      0.00000000	      0.00000000	      0.00000000	      0.00000000	      0.00000000	      0.00000000	      0.00000000	      0.00000000	      0.00000000	     -1.15628233	    -15.52694950	      3.49326831	      8.78485353
      0.01666667	     -4.09671828	     -8.86053963	     -7.98989739	     -0.73428370	      1.03406726	      0.32633597	    -19.16352696	      9.18744827	     -3.77503876	     -3.83096832	     -0.83418427	     26.68761198	     37.55792046	     26.34131759	     -9.75381939	     -1.02956052	     -4.07650011	      0.00000000	      0.00000000	      0.00000000	      0.00000000	      0.00000000	      0.00000000	      0.00000000	      0.00000000	      0.00000000	      0.00000000	      0.00000000	      0.00000000	     -1.48128999	    -15.50107730	      3.44760083	      8.81903767
      0.02083333	     -4.05916491	     -8.83044900	     -8.21375089	     -0.72858421	      1.03316936	      0.32684540	    -19.23505821	      9.00405000	     -3.65099246	     -4.37416086	     -0.86256207	     26.83506321	     37.78676286	     26.30510512	     -9.73846767	     -1.17648046	     -4.24998441	      0.00000000	      0.00000000	      0.00000000	      0.00000000	      0.00000000	      0.00000000	      0.00000000	      0.00000000	      0.00000000	      0.00000000	      0.00000000	      0.00000000	     -2.10018472	    -15.62590230	      3.16745695	      9.14126197
      0.02500000	     -4.02605314	     -8.82292125	     -8.30287790	     -0.72260880	      1.03215189	      0.32719566	    -19.44653112	      8.90176955	     -3.56396752	     -4.63528298	     -0.89667338	     26.89144918	     37.85664860	     26.36132407	     -9.68876235	     -1.16801712	     -4.61332567	      0.00000000	      0.00000000	      0.00000000	      0.00000000	      0.00000000	      0.00000000	      0.00000000	      0.00000000	      0.00000000	      0.00000000	      0.00000000	      0.00000000	     -2.47459488	    -15.59331901	      3.08474141	      9.21237998
      0.02916667	     -3.99177453	     -8.80867752	     -8.39042123	     -0.71661169	      1.03116927	      0.32752393	    -19.63175472	      8.79006296	     -3.46472267	     -4.93728842	     -0.95665918	     26.93950121	     37.92554957	     26.41970075	     -9.63612378	     -1.15567790	     -5.00783395	      0.00000000	      0.00000000	      0.00000000	      0.00000000	      0.00000000	      0.00000000	      0.00000000	      0.00000000	      0.00000000	      0.00000000	      0.00000000	      0.00000000	     -2.89292250	    -15.57816201	      2.97545672	      9.27661954
      0.03333333	     -3.90904106	     -8.66989923	     -8.78605777	     -0.71058883	      1.03050790	      0.32838323	    -19.59514055	      8.39450933	     -3.49760230	     -5.74488176	     -0.92070221	     27.40218145	     38.86867690	     26.26100347	     -9.60355952	     -1.53810760	     -5.27558153	      0.00000000	      0.00000000	      0.00000000	      0.00000000	      0.00000000	      0.00000000	      0.00000000	      0.00000000	      0.00000000	      0.00000000	      0.00000000	      0.00000000	     -3.37796483	    -15.73138729	      2.47589188	     10.00581362
      0.03750000	     -3.81062663	     -8.55045957	     -8.80918855	     -0.70443700	      1.02955318	      0.32868527	    -19.66610747	      8.11229895	     -4.05911570	     -6.27048830	     -1.27583518	     28.25117965	     43.11597457	     26.25649067	     -9.42651201	     -1.51354166	     -5.72283790	      0.00000000	      0.00000000	      0.00000000	      0.00000000	      0.00000000	      0.00000000	      0.00000000	      0.00000000	      0.00000000	      0.00000000	      0.00000000	      0.00000000	     -3.77732949	    -15.83862507	      2.18903290	      9.99712838
